<svg width="18" height="18" viewBox="0 0 18 18" fill="none" xmlns="http://www.w3.org/2000/svg">
<path d="M9.09458 6.05611C7.51763 6.05611 6.23072 7.34302 6.23072 8.91997C6.23072 10.4969 7.51763 11.7838 9.09458 11.7838C10.6715 11.7838 11.9585 10.4969 11.9585 8.91997C11.9585 7.34302 10.6715 6.05611 9.09458 6.05611ZM17.684 8.91997C17.684 7.73404 17.6948 6.55884 17.6282 5.37505C17.5616 4.00005 17.2479 2.77974 16.2424 1.77427C15.2348 0.766654 14.0167 0.455131 12.6417 0.38853C11.4557 0.321928 10.2805 0.33267 9.09673 0.33267C7.91079 0.33267 6.7356 0.321928 5.55181 0.38853C4.17681 0.455131 2.9565 0.768803 1.95103 1.77427C0.943412 2.78189 0.631889 4.00005 0.565287 5.37505C0.498686 6.56099 0.509428 7.73619 0.509428 8.91997C0.509428 10.1038 0.498686 11.2811 0.565287 12.4649C0.631889 13.8399 0.945561 15.0602 1.95103 16.0657C2.95865 17.0733 4.17681 17.3848 5.55181 17.4514C6.73775 17.518 7.91294 17.5073 9.09673 17.5073C10.2827 17.5073 11.4579 17.518 12.6417 17.4514C14.0167 17.3848 15.237 17.0711 16.2424 16.0657C17.2501 15.0581 17.5616 13.8399 17.6282 12.4649C17.6969 11.2811 17.684 10.1059 17.684 8.91997ZM9.09458 13.3264C6.65611 13.3264 4.68814 11.3584 4.68814 8.91997C4.68814 6.4815 6.65611 4.51353 9.09458 4.51353C11.5331 4.51353 13.501 6.4815 13.501 8.91997C13.501 11.3584 11.5331 13.3264 9.09458 13.3264ZM13.6815 5.36216C13.1122 5.36216 12.6524 4.9024 12.6524 4.33306C12.6524 3.76372 13.1122 3.30396 13.6815 3.30396C14.2508 3.30396 14.7106 3.76372 14.7106 4.33306C14.7108 4.46825 14.6843 4.60215 14.6326 4.72708C14.581 4.85201 14.5052 4.96553 14.4096 5.06112C14.314 5.15672 14.2005 5.23251 14.0755 5.28417C13.9506 5.33583 13.8167 5.36233 13.6815 5.36216Z" fill="#FF5A4E" style="fill:#FF5A4E;fill:color(display-p3 1.0000 0.3529 0.3059);fill-opacity:1;"/>
</svg>
