<svg width="18" height="15" viewBox="0 0 18 15" fill="none" xmlns="http://www.w3.org/2000/svg">
<path d="M17.1287 2.13456C16.5687 2.37589 15.9788 2.54105 15.3749 2.62562C15.6555 2.62562 16.0589 2.08194 16.2518 1.88025C16.5054 1.5744 16.6988 1.2233 16.8218 0.845512C16.8218 0.845512 16.8218 0.775362 16.8218 0.757824C16.8071 0.749358 16.7904 0.744905 16.7735 0.744905C16.7566 0.744905 16.74 0.749358 16.7253 0.757824C16.0842 1.09702 15.4039 1.35619 14.6996 1.5295C14.6786 1.54274 14.6544 1.54976 14.6295 1.54976C14.6047 1.54976 14.5804 1.54274 14.5594 1.5295C14.5054 1.46395 14.4468 1.4024 14.384 1.34535C14.0925 1.09275 13.7604 0.891158 13.4019 0.749053C12.9251 0.550855 12.4086 0.466778 11.8936 0.503522C11.394 0.53993 10.9069 0.677658 10.4622 0.908313C10.0174 1.13897 9.62434 1.45772 9.30675 1.84518C8.9786 2.25043 8.74491 2.72375 8.62274 3.23068C8.52636 3.71111 8.52636 4.20591 8.62274 4.68634C8.62274 4.76526 8.62272 4.77402 8.55257 4.76526C5.87458 4.49978 3.39045 3.24988 1.58126 1.25766C1.50234 1.1612 1.45847 1.1612 1.39709 1.25766C1.02842 1.92495 0.887176 2.69419 0.994769 3.44892C1.10236 4.20365 1.45293 4.90278 1.99338 5.44047L2.42305 5.81754C1.95625 5.77651 1.50125 5.64863 1.08142 5.44047C0.99373 5.38786 0.958633 5.44047 0.949864 5.51062C0.936966 5.64184 0.936966 5.77401 0.949864 5.90523C1.03285 6.53339 1.28115 7.12824 1.66941 7.62897C2.05767 8.1297 2.57197 8.51834 3.15967 8.75515C3.30236 8.82025 3.45259 8.86738 3.6069 8.89545C3.16822 8.96444 2.72145 8.96444 2.28277 8.89545C2.18631 8.89545 2.15125 8.89545 2.18632 9.01822C2.41154 9.60982 2.78441 10.1339 3.26944 10.5407C3.75448 10.9474 4.33552 11.2233 4.9573 11.342C5.0841 11.3504 5.21011 11.368 5.33436 11.3946C4.79627 11.8825 4.14543 12.229 3.44028 12.4031C2.51901 12.7305 1.53808 12.8561 0.564026 12.7713C0.406184 12.7713 0.379868 12.7713 0.336023 12.7713C0.292178 12.7713 0.336066 12.8327 0.379911 12.8766C0.572829 12.9994 0.77451 13.1133 0.976197 13.2273C1.58652 13.5533 2.23043 13.8121 2.89661 13.999C4.60622 14.5094 6.41938 14.5651 8.1571 14.1606C9.89482 13.7562 11.497 12.9056 12.8056 11.6928C13.7468 10.6707 14.4744 9.47092 14.9457 8.16388C15.417 6.85683 15.6225 5.46882 15.5503 4.08128C15.5503 3.97605 15.6818 3.91466 15.7607 3.85328C16.2756 3.45249 16.7303 2.98001 17.1111 2.45024C17.1699 2.37196 17.2008 2.27626 17.1988 2.1784C17.1988 2.1784 17.1988 2.10825 17.1287 2.13456Z" fill="#FF5A4E" style="fill:#FF5A4E;fill:color(display-p3 1.0000 0.3529 0.3059);fill-opacity:1;"/>
</svg>
