<svg width="18" height="13" viewBox="0 0 18 13" fill="none" xmlns="http://www.w3.org/2000/svg">
<path d="M17.8913 4.2737C17.8913 3.28528 17.4987 2.33734 16.7997 1.63842C16.1008 0.939509 15.1529 0.546875 14.1645 0.546875H4.64138C3.65296 0.546875 2.70499 0.939509 2.00607 1.63842C1.30716 2.33734 0.914551 3.28528 0.914551 4.2737V8.6582C0.914551 9.64662 1.30716 10.5946 2.00607 11.2935C2.70499 11.9924 3.65296 12.385 4.64138 12.385H14.1645C15.1529 12.385 16.1008 11.9924 16.7997 11.2935C17.4987 10.5946 17.8913 9.64662 17.8913 8.6582V4.2737ZM12.2879 6.81671L8.01742 8.93004C7.85081 9.0265 7.2808 8.93004 7.2808 8.71081V4.37015C7.2808 4.17723 7.85959 4.05446 8.0262 4.15092L12.1125 6.37826C12.2879 6.44841 12.4633 6.69394 12.2879 6.7904V6.81671Z" fill="#FF5A4E" style="fill:#FF5A4E;fill:color(display-p3 1.0000 0.3529 0.3059);fill-opacity:1;"/>
</svg>
